<svg id="svg" xmlns="http://www.w3.org/2000/svg" xmlns:xlink="http://www.w3.org/1999/xlink" width="400" height="400" viewBox="0, 0, 400,400"><g id="svgg"><path id="path0" d="M143.799 2.744 C 86.068 17.464,40.769 49.066,25.664 85.158 C 14.008 113.008,19.679 156.963,38.507 184.705 C 51.268 203.507,66.825 213.416,101.701 224.956 L 111.606 228.233 112.038 233.062 C 112.639 239.769,114.231 300.091,113.819 300.504 C 113.634 300.689,110.186 301.718,106.156 302.791 C 78.722 310.096,68.540 321.744,69.694 344.502 C 70.941 369.083,90.324 369.886,148.994 347.790 L 155.409 345.374 155.900 348.273 C 157.357 356.894,161.967 369.580,164.946 373.170 C 165.533 373.877,165.993 378.153,166.176 384.611 C 166.634 400.728,166.363 400.000,171.910 400.000 L 176.563 400.000 176.563 392.578 C 176.563 388.496,176.752 385.156,176.984 385.156 C 177.216 385.156,178.854 385.895,180.623 386.797 C 183.617 388.325,188.030 389.786,193.164 390.949 C 195.187 391.408,195.313 391.686,195.313 395.718 L 195.313 400.000 200.391 400.000 L 205.469 400.000 205.469 396.184 L 205.469 392.368 209.961 391.831 C 235.261 388.811,256.139 368.639,256.238 347.116 C 256.245 345.745,256.602 344.406,257.033 344.139 C 258.842 343.021,291.257 352.221,298.574 355.929 C 310.429 361.936,327.367 355.783,332.634 343.556 C 340.326 325.700,335.302 309.251,320.047 302.348 C 315.446 300.266,291.227 292.200,289.500 292.176 C 286.714 292.135,286.693 291.197,289.049 272.222 C 292.356 245.586,294.406 234.026,296.944 227.686 C 298.159 224.651,299.388 220.703,299.674 218.911 C 300.187 215.706,300.337 215.574,308.887 210.810 C 358.122 183.376,384.199 147.341,379.832 112.771 C 374.184 68.048,322.185 21.345,257.769 3.140 L 246.659 0.000 200.478 0.034 L 154.297 0.067 143.799 2.744 M223.438 6.341 C 297.157 13.427,370.313 70.010,370.313 119.944 C 370.312 150.492,342.524 183.558,298.616 205.259 C 292.074 208.492,292.048 208.527,290.298 216.300 C 289.586 219.464,288.330 223.373,287.507 224.986 C 285.111 229.682,283.087 241.407,278.469 277.343 C 276.968 289.023,278.037 287.840,270.310 286.374 C 266.779 285.704,263.616 285.156,263.282 285.156 C 262.947 285.156,262.435 286.475,262.143 288.086 C 261.851 289.697,261.428 291.783,261.203 292.721 C 260.858 294.160,261.262 294.554,263.796 295.249 C 265.446 295.702,272.700 297.662,279.915 299.604 C 325.392 311.849,329.513 315.160,324.978 335.804 C 322.689 346.218,311.351 351.445,301.679 346.543 C 297.171 344.259,280.738 339.259,266.705 335.901 L 256.457 333.449 255.967 328.754 C 255.697 326.171,255.701 322.652,255.976 320.934 C 256.264 319.131,256.145 317.595,255.694 317.303 C 255.264 317.025,254.307 312.834,253.567 307.990 C 251.212 292.579,248.674 284.790,237.211 257.813 C 235.660 254.160,233.508 250.398,232.429 249.452 C 231.351 248.505,230.469 247.152,230.469 246.444 C 230.469 241.809,217.925 225.475,212.021 222.422 C 209.267 220.998,195.313 219.725,195.313 220.898 C 195.313 221.331,194.247 222.127,192.944 222.666 C 186.832 225.198,180.393 232.601,175.963 242.188 C 174.475 245.410,172.814 248.574,172.274 249.219 C 171.044 250.685,169.146 256.296,169.417 257.661 C 169.529 258.222,168.748 261.386,167.682 264.692 C 162.461 280.884,157.129 302.153,155.795 312.109 C 155.507 314.258,154.894 316.488,154.432 317.066 C 153.916 317.712,153.670 321.486,153.795 326.855 L 153.998 335.593 149.069 337.424 C 88.518 359.915,74.017 359.599,80.004 335.921 C 84.120 319.643,91.702 314.910,122.586 309.341 C 129.715 308.055,136.340 306.827,137.310 306.611 C 138.964 306.242,139.041 305.944,138.568 301.742 C 137.940 296.167,138.736 296.609,131.291 297.697 C 127.792 298.209,124.725 298.423,124.474 298.172 C 123.935 297.633,121.951 245.541,121.906 230.742 L 121.875 220.468 117.773 219.520 C 90.026 213.101,64.751 200.688,53.272 187.841 C 29.811 161.583,22.079 114.904,36.319 85.480 C 60.811 34.868,145.888 -1.114,223.438 6.341 M208.549 232.009 C 217.670 236.661,238.523 280.127,242.912 303.634 C 248.233 332.131,248.069 349.352,242.367 360.938 C 229.158 387.772,182.461 389.575,170.619 363.707 C 160.008 340.531,162.503 310.093,179.009 261.328 C 188.106 234.451,196.672 225.949,208.549 232.009 " stroke="none" fill="#000000" fill-rule="evenodd"></path></g></svg>